<svg width="48" height="48" viewBox="0 0 48 48" fill="none" xmlns="http://www.w3.org/2000/svg">
<path d="M23.0758 16.6434C23.3932 15.7855 24.6068 15.7855 24.9242 16.6434L26.347 20.4886C26.5466 21.028 26.972 21.4534 27.5114 21.653L31.3566 23.0758C32.2144 23.3932 32.2144 24.6068 31.3566 24.9242L27.5114 26.347C26.972 26.5466 26.5466 26.972 26.347 27.5114L24.9242 31.3566C24.6068 32.2144 23.3932 32.2144 23.0758 31.3566L21.653 27.5114C21.4534 26.972 21.028 26.5466 20.4886 26.347L16.6434 24.9242C15.7855 24.6068 15.7855 23.3932 16.6434 23.0758L20.4886 21.653C21.028 21.4534 21.4534 21.028 21.653 20.4886L23.0758 16.6434Z" stroke="white" stroke-width="1.71429"/>
<path d="M24 44C35.0457 44 44 35.0457 44 24C44 12.9543 35.0457 4 24 4C12.9543 4 4 12.9543 4 24C4 35.0457 12.9543 44 24 44Z" stroke="white" stroke-width="1.71429"/>
<path d="M16 16C17.3465 8.93638 20.4218 4 24 4C27.5782 4 30.6534 8.93638 32 16" stroke="white" stroke-width="1.71429" stroke-linecap="round" stroke-linejoin="round"/>
<path d="M16 32C17.3465 39.0636 20.4218 44 24 44C27.5782 44 30.6534 39.0636 32 32" stroke="white" stroke-width="1.71429" stroke-linecap="round" stroke-linejoin="round"/>
<path d="M4 24H9M44 24H39" stroke="white" stroke-width="1.71429" stroke-linecap="round" stroke-linejoin="round"/>
</svg>
